<svg id="Layer_1" data-name="Layer 1" xmlns="http://www.w3.org/2000/svg" viewBox="0 0 718.6 86.72"><defs><style>.cls-1{fill:#2a3b66;}.cls-2{fill:#eac992;}.cls-3{fill:none;}</style></defs><title>logo-mini</title><path class="cls-1" d="M41.41,120.42H36.7V87.62h4.71Z" transform="translate(-36.7 -45.88)"/><path class="cls-1" d="M76.8,120.42h-4l-22-25.25v25.24H46.41V87.62h3.8l22.12,25.44V87.62H76.8Z" transform="translate(-36.7 -45.88)"/><path class="cls-1" d="M111.95,120.42h-4L86,95.17v25.24H81.56V87.62h3.8l22.12,25.44V87.62H112Z" transform="translate(-36.7 -45.88)"/><path class="cls-1" d="M150.36,104c0,9.42-7.21,16.88-17.94,16.88-10.29,0-17.31-7.6-17.31-16.73,0-8.7,6.35-16.93,17.55-16.93C143.58,87.19,150.36,95.17,150.36,104Zm-30.39.14c0,7.45,5.87,12.36,12.74,12.36a13.48,13.48,0,0,0,9.57-3.89,13.75,13.75,0,0,0,3.27-8.66,12.35,12.35,0,0,0-12.39-12.31h-.3c-9.19,0-12.86,7-12.86,12.48Z" transform="translate(-36.7 -45.88)"/><path class="cls-1" d="M163.38,120.61h-1.06l-14.14-33h4.71l9.86,23,9.81-23h4.66Z" transform="translate(-36.7 -45.88)"/><path class="cls-1" d="M203.05,120.42h-4.81l-4.38-9.66H179.92l-4.14,9.66H171l14.09-33h3.32Zm-11.11-13.9-5.29-11.88-4.9,11.88Z" transform="translate(-36.7 -45.88)"/><path class="cls-1" d="M230.83,120.42h-4.71V87.62h4.71Z" transform="translate(-36.7 -45.88)"/><path class="cls-1" d="M269.49,104c0,9.42-7.21,16.88-17.94,16.88-10.29,0-17.31-7.6-17.31-16.73,0-8.7,6.35-16.93,17.55-16.93C262.71,87.19,269.49,95.17,269.49,104Zm-30.39.14c0,7.45,5.87,12.36,12.74,12.36a13.48,13.48,0,0,0,9.57-3.89,13.75,13.75,0,0,0,3.27-8.66,12.35,12.35,0,0,0-12.36-12.34H252c-9.19,0-12.9,7-12.9,12.51Z" transform="translate(-36.7 -45.88)"/><path class="cls-1" d="M303.39,120.42h-4l-22-25.25v25.24H273V87.62h3.8l22.12,25.44V87.62h4.47Z" transform="translate(-36.7 -45.88)"/><path class="cls-1" d="M370.45,91.81h-13.9v10H370V106H356.55v10.19h14.33v4.23h-19V87.62h18.61Z" transform="translate(-36.7 -45.88)"/><path class="cls-1" d="M404.41,120.42h-4l-22-25.25v25.24H374V87.62h3.8l22.12,25.44V87.62h4.47Z" transform="translate(-36.7 -45.88)"/><path class="cls-1" d="M434.25,91.76H422.8v28.66h-4.71V91.76H406.84V87.62h27.41Z" transform="translate(-36.7 -45.88)"/><path class="cls-1" d="M224.06,91.76H212.62v28.66H207.9V91.76H196.65V87.62h27.41Z" transform="translate(-36.7 -45.88)"/><path class="cls-1" d="M444.63,87.62a13.7,13.7,0,0,1,5.63,1.06,8.49,8.49,0,0,1,5.15,8.08,8.2,8.2,0,0,1-5.48,8.08c3,2,4.81,5,7.31,9,1.39,2.26,2.21,3.37,4.47,6.54h-5.58c-1.11-1.59-5.67-8.75-6.73-10.15-3.22-4.13-4.81-4.13-7.07-4.13h-1.25v14.28h-4.66V87.62Zm-3.56,4V102h1.83a16.74,16.74,0,0,0,4.57-.48,5,5,0,0,0,3.13-4.71,4.79,4.79,0,0,0-2.5-4.38c-1.2-.58-2.74-.77-5.58-.77Z" transform="translate(-36.7 -45.88)"/><path class="cls-1" d="M481.51,91.81h-13.9v10H481V106H467.61v10.19h14.33v4.23h-19V87.62h18.61Z" transform="translate(-36.7 -45.88)"/><path class="cls-1" d="M493.76,87.62c3.89,0,6.92,0,9.66,2.79a9.47,9.47,0,0,1-.19,13.13c-2.07,2-4.66,2.64-9.76,2.64H490v14.23h-4.7V87.62ZM490,91.76V102h3.75c1.88,0,3.8,0,5.19-.87a4.77,4.77,0,0,0,2.16-4.33,4.83,4.83,0,0,0-1.44-3.65c-1.44-1.39-2.74-1.39-6.11-1.39Z" transform="translate(-36.7 -45.88)"/><path class="cls-1" d="M516,87.62a13.7,13.7,0,0,1,5.63,1.06,8.49,8.49,0,0,1,5.15,8.08,8.2,8.2,0,0,1-5.48,8.08c3,2,4.81,5,7.31,9,1.39,2.26,2.21,3.37,4.47,6.54H527.5c-1.11-1.59-5.67-8.75-6.73-10.15-3.22-4.13-4.81-4.13-7.07-4.13h-1.25v14.28H507.8V87.62Zm-3.56,4V102h1.83a16.74,16.74,0,0,0,4.57-.48A5,5,0,0,0,522,96.76a4.79,4.79,0,0,0-2.5-4.38c-1.2-.58-2.74-.77-5.58-.77Z" transform="translate(-36.7 -45.88)"/><path class="cls-1" d="M552.9,91.81H539v10h13.42V106H539v10.19h14.33v4.23h-19V87.62H552.9Z" transform="translate(-36.7 -45.88)"/><path class="cls-1" d="M587.47,120.42h-4l-22-25.25v25.24h-4.42V87.62h3.8L583,113.06V87.62h4.47Z" transform="translate(-36.7 -45.88)"/><path class="cls-1" d="M610.69,91.81h-13.9v10h13.42V106H596.79v10.19h14.33v4.23h-19V87.62h18.61Z" transform="translate(-36.7 -45.88)"/><path class="cls-1" d="M642.23,106.23c0,3.17,0,7.74-3.7,11.06a15.15,15.15,0,0,1-10.34,3.56c-4.62,0-9.71-1.59-12.31-5.72-1.83-2.89-1.83-6.68-1.83-8.9V87.62h4.71v18.61c0,4.33.38,6,2.07,7.69,1.39,1.44,3.56,2.74,7.36,2.74,5.29,0,7.6-2.74,8.46-4.33.62-1.15.91-2.89.91-6.11V87.62h4.66Z" transform="translate(-36.7 -45.88)"/><path class="cls-1" d="M654.72,87.62a13.7,13.7,0,0,1,5.63,1.06,8.49,8.49,0,0,1,5.15,8.08,8.2,8.2,0,0,1-5.48,8.08c3,2,4.81,5,7.31,9,1.39,2.26,2.21,3.37,4.47,6.54h-5.58c-1.11-1.59-5.67-8.75-6.73-10.15-3.22-4.13-4.81-4.13-7.07-4.13h-1.25v14.28H646.5V87.62Zm-3.56,4V102H653a16.74,16.74,0,0,0,4.57-.48,5,5,0,0,0,3.13-4.71,4.79,4.79,0,0,0-2.5-4.38c-1.2-.58-2.74-.77-5.58-.77Z" transform="translate(-36.7 -45.88)"/><path class="cls-1" d="M689,94.84a10.82,10.82,0,0,0-7.69-3.41c-3.22,0-5.19,1.73-5.19,3.8,0,2.79,1.92,3.94,8.17,7.6a14,14,0,0,1,4.23,3.65,8.63,8.63,0,0,1,1.78,5.43c0,5.15-3.7,8.94-9.52,8.94a14.69,14.69,0,0,1-8.85-3v-6c1,1.2,3.9,4.81,8.85,4.81,2.45,0,5.1-1.54,5.1-4.33s-2.79-4.76-4.33-5.67c-5.19-3.13-6.68-4-8.13-5.87a7.62,7.62,0,0,1-1.63-4.9c0-5,3.75-8.7,9.67-8.7A13.67,13.67,0,0,1,689,89.5Z" transform="translate(-36.7 -45.88)"/><path class="cls-1" d="M720.45,120.42h-4.76V106.14H697.32v14.28H692.6V87.62h4.71V101.8h18.37V87.62h4.76Z" transform="translate(-36.7 -45.88)"/><path class="cls-1" d="M730,120.42h-4.7V87.62H730Z" transform="translate(-36.7 -45.88)"/><path class="cls-1" d="M743.09,87.62c3.89,0,6.92,0,9.66,2.79a9.47,9.47,0,0,1-.19,13.13c-2.07,2-4.66,2.64-9.76,2.64h-3.46v14.23h-4.71V87.62Zm-3.75,4.13V102h3.75c1.88,0,3.8,0,5.19-.87a4.77,4.77,0,0,0,2.16-4.33A4.83,4.83,0,0,0,749,93.15c-1.44-1.39-2.74-1.39-6.11-1.39Z" transform="translate(-36.7 -45.88)"/><path class="cls-2" d="M36.84,132.57V129H738.65v3.6Z" transform="translate(-36.7 -45.88)"/><path class="cls-1" d="M326,97.73c-2.55,2.43-12.44,9.12-13.09,9.48a.93.93,0,0,0-.3.77c0,6,4.8,9.66,8.71,9.66,8.71,0,16.41-9.24,16.41-16.77,0-.66-.06-1.36-.41-1.54a5.74,5.74,0,0,0-2.55-.29c-3.44,0-3.91,2.37-3.91,3.14a8.06,8.06,0,0,0,1.07,2.9.83.83,0,0,1-.06.65,1,1,0,0,1-.89.36,2.59,2.59,0,0,1-2.43-2.25c0-1.36,1-2.49,2.55-4.26a9.26,9.26,0,0,1,5.8-2.49c3.79,0,6,2.84,6.63,3.61a1.83,1.83,0,0,0,1.36.71c.59,0,1.13-.71,1.13-1.83a6.12,6.12,0,0,0-1.24-3.44c-.36-.47-.06-.59.35-.59,1.36,0,2.79,2.07,2.79,4a2.25,2.25,0,0,1-.83,2,29.42,29.42,0,0,0-3.91,1.6c-.48.18-.65.18-.83-.06A8.44,8.44,0,0,0,339,99.87c-.18-.12-.3-.06-.3.24a23.11,23.11,0,0,1-5.15,13.62c-4.09,4.86-9.3,6.69-12.73,6.69-9,0-11.08-7.34-11.08-11.49A17.14,17.14,0,0,1,315,96.78c1.3-1.48,4.44-3.61,6.4-3.61,1.07,0,2.55,1.84,3,4.44.06.24.18.18.3.06,3.14-2.6,7.76-7.88,7.76-12.43a5.25,5.25,0,0,0-.71-2.55,1.2,1.2,0,0,1,.06-1c.41-.47,1.18-1.12,1.66-1.12.77,0,1.48,1.42,1.48,2.78C335,88.55,330.42,93.59,326,97.73Zm-13.21,7.76c0,.17.06.47.35.29,1.36-.71,7.23-4.68,7.64-5.09a3,3,0,0,0,1-2.25c0-1-.24-3.38-2.13-3.38-2.92,0-6.53,4.69-6.83,10.43Z" transform="translate(-36.7 -45.88)"/><path class="cls-3" d="M484.44,54.77a5.9,5.9,0,0,0-3-5.29c-1.06-.53-2.59-1.06-6.68-1.06H470.6V61.21h3.51c3.75,0,5.57-.19,7.35-1.06A6.06,6.06,0,0,0,484.44,54.77Z" transform="translate(-36.7 -45.88)"/><path class="cls-3" d="M562,48.33a14.39,14.39,0,1,0,14.46,14.32v-.1a14.25,14.25,0,0,0-14.28-14.22Z" transform="translate(-36.7 -45.88)"/><path class="cls-3" d="M442.66,48.33a14.39,14.39,0,1,0,14.46,14.32v-.1a14.25,14.25,0,0,0-14.28-14.22Z" transform="translate(-36.7 -45.88)"/><polygon class="cls-3" points="338.85 19.7 352.93 19.7 345.91 4.33 338.85 19.7"/><path class="cls-3" d="M319.58,92.72c-2.9,0-6.52,4.68-6.81,10.43,0,.17.06.47.35.29,1.36-.71,7.23-4.68,7.64-5.09a3,3,0,0,0,1-2.25C321.71,95.09,321.48,92.72,319.58,92.72Z" transform="translate(-36.7 -45.88)"/><path class="cls-1" d="M332.86,76.77V50.85a.3.3,0,0,1,.53-.19l11.74,14.4a.3.3,0,0,0,.42,0l0,0,11.69-14.4a.3.3,0,0,1,.53.19V79.08h2.55V46.31h-2.41a.3.3,0,0,0-.23.11L345.58,61.26a.3.3,0,0,1-.42,0l0,0L333,46.42a.3.3,0,0,0-.23-.11h-2.36V79l2.39-2A.3.3,0,0,0,332.86,76.77Z" transform="translate(-36.7 -45.88)"/><path class="cls-1" d="M381.84,46.07l-15,33h2.64l5.19-11.34h16l5.19,11.34h2.64l-15.14-33Zm-6.29,19.51,7.06-15.38,7,15.38Z" transform="translate(-36.7 -45.88)"/><polygon class="cls-1" points="373.08 13.41 362.17 0.43 359.09 0.43 371.78 15.62 371.78 33.2 374.33 33.2 374.33 15.62 387.16 0.43 384.03 0.43 373.08 13.41"/><path class="cls-1" d="M442.61,45.88c-10.52,0-17.39,7.88-17.39,16.77,0,9.42,7.55,16.87,17.35,16.87,9.52,0,17.39-7.11,17.39-17C460,53.72,453,45.88,442.61,45.88Zm-.1,31.23a14.39,14.39,0,1,1,14.61-14.56,14.23,14.23,0,0,1-13.89,14.56h-.72Z" transform="translate(-36.7 -45.88)"/><path class="cls-1" d="M481.07,62.75c3.94-1.44,6.25-4,6.25-8a8.08,8.08,0,0,0-5-7.5c-2.11-.82-4-1-7.83-1h-6.49V79.08h2.55V63.37h3.51c2.4,0,4,0,5.43,1a20.15,20.15,0,0,1,4,4.8l6.29,9.9h3l-1.54-2.26C483.81,65.25,483,64,481.07,62.75Zm-7-1.54H470.6V48.43h4.13c4.08,0,5.62.53,6.68,1.06a5.9,5.9,0,0,1,3,5.29,6.06,6.06,0,0,1-3,5.38c-1.73.84-3.56,1-7.3,1Z" transform="translate(-36.7 -45.88)"/><path class="cls-1" d="M495.6,50.88h1a7.34,7.34,0,0,1-1,4V56.5c3.12-2.26,3.12-6.1,3.12-7.4V46.31H495.6Z" transform="translate(-36.7 -45.88)"/><path class="cls-1" d="M516,61.16c-3.6-1.25-7.3-2.55-7.3-6.73,0-2.79,2.21-6.3,6.92-6.3,2.74,0,4.76,1.06,7.4,2.59V48a15.8,15.8,0,0,0-7.64-2.07,9,9,0,0,0-9.27,8.65,8.22,8.22,0,0,0,3,6.25c.72.62,1.59,1.35,5.91,2.83,2.59.86,6.73,2.55,6.73,7a6.6,6.6,0,0,1-6.66,6.54h-.34c-3,0-5.48-1.44-8.31-3.46v3a15.28,15.28,0,0,0,8.41,2.88c4.56,0,9.51-3.27,9.51-9S519.87,62.55,516,61.16Z" transform="translate(-36.7 -45.88)"/><path class="cls-1" d="M562,45.88c-10.52,0-17.39,7.88-17.39,16.77,0,9.42,7.55,16.87,17.35,16.87,9.52,0,17.39-7.11,17.39-17C579.33,53.72,572.41,45.88,562,45.88Zm-.1,31.23a14.39,14.39,0,1,1,14.61-14.56,14.23,14.23,0,0,1-13.89,14.56h-.72Z" transform="translate(-36.7 -45.88)"/><polygon class="cls-1" points="550.72 33.2 553.22 33.2 553.22 17.11 566.15 17.11 566.15 14.99 553.22 14.99 553.22 2.55 567.54 2.55 567.54 0.43 550.72 0.43 550.72 33.2"/><polygon class="cls-1" points="574.76 33.2 577.26 33.2 577.26 17.11 590.19 17.11 590.19 14.99 577.26 14.99 577.26 2.55 591.58 2.55 591.58 0.43 574.76 0.43 574.76 33.2"/><rect class="cls-1" x="598.8" y="0.43" width="2.59" height="32.77"/><path class="cls-1" d="M649.06,62.7c0-8.36,6-14.41,14.7-14.41a23.34,23.34,0,0,1,11.15,3.12V48.62a27.89,27.89,0,0,0-11.63-2.74c-7.59,0-17.11,5.67-17.11,16.86,0,10.52,8.46,16.77,17.44,16.77a25.11,25.11,0,0,0,11.63-3.08V73.8a25.44,25.44,0,0,1-11.63,3.27C655.21,77.07,649.06,71.2,649.06,62.7Z" transform="translate(-36.7 -45.88)"/><polygon class="cls-1" points="649.04 31.14 649.04 17.73 663.98 17.73 663.98 15.62 649.04 15.62 649.04 2.55 664.37 2.55 664.37 0.43 646.49 0.43 646.49 33.2 664.75 33.2 664.75 31.14 649.04 31.14"/><path class="cls-1" d="M729.1,48.52a2.26,2.26,0,0,1-.37,1.24,2,2,0,0,1-1.33.83c-.18,0-.32-.14-.28-.41a7.49,7.49,0,0,0,.14-1.43,1.57,1.57,0,0,0-1.43-1.69h-.13c-1.06,0-2,.41-3.5,2.81a46.38,46.38,0,0,0-4.55,12c0,.09,0,.37.14.37h3.13c.28,0,.69.09.69.28s-.55.46-1.1.51c-.78.09-1.7.14-2.9.23-.18,0-.28.18-.32.32-.87,3.08-3.4,13.57-5.47,21.3-1,3.82-3.73,7.68-8.14,7.68-1.1,0-2.21-.83-2.21-1.43a1.78,1.78,0,0,1,.83-1.24,1,1,0,0,1,1,.14c.92.6,1.43,1.24,2.62,1.24,1.56,0,2.53-1.33,4-6.67,1.75-6.76,3.77-15.5,5.11-20.79,0-.23,0-.51-.14-.51h-2.35c-.28,0-.51-.14-.51-.32s.69-.37.92-.41c.83-.09,1.93-.09,2.3-.14.14,0,.28-.28.32-.37,2-6.81,4.14-11.09,6.26-13.2s3.68-2.44,4.69-2.44A2.35,2.35,0,0,1,729.1,48.52Z" transform="translate(-36.7 -45.88)"/><path class="cls-1" d="M732.09,66.69c0,4.74-3.4,9.48-5.38,10.9a6.46,6.46,0,0,1-4,1.52c-1.52,0-3.08-1.52-3.08-5a16.27,16.27,0,0,1,3.31-9c2.16-2.67,4.28-3.68,6-3.68C731.63,61.4,732.09,64.76,732.09,66.69Zm-7.87-.23a17.91,17.91,0,0,0-2.9,9.15c0,1.79.6,2.85,1.61,2.85s1.93-.64,3.22-2.3c2.12-2.76,4.09-7.64,4.09-10.81,0-1.1,0-3.36-1.29-3.36s-2.84,1.44-4.73,4.47Z" transform="translate(-36.7 -45.88)"/><path class="cls-1" d="M739.53,63.34c0,1.06-1.56,5-1.84,6.07-.14.55.09.64.32.23a53,53,0,0,1,3.54-5.29c1.38-1.84,3-2.94,4.09-2.94A1.38,1.38,0,0,1,747,63a2.61,2.61,0,0,1-1.66,2.39c-.28,0-.46-.14-.41-.6,0-1.1,0-1.89-.74-1.89-.92,0-2.44,1.89-4.83,6.39-1.33,2.53-2.76,5.52-4.32,9.06-.23.55-.51.78-.69.78a1.15,1.15,0,0,1-.87-.37.64.64,0,0,1,0-.6c.09-.46,2.21-7,4.32-13.25.28-.92.18-1.24-.14-1.24-1,0-2.35,1.52-3.13,2.3-.23.23-.41.09-.41-.14,0-.87,1.75-4.14,4.28-4.14C739.12,61.68,739.53,62.37,739.53,63.34Z" transform="translate(-36.7 -45.88)"/></svg>